<svg xmlns="http://www.w3.org/2000/svg" width="1200" height="900" viewBox="0 0 1200 900" role="img" aria-label="L'équipe TEMACONCEPT en atelier">
  <defs>
    <linearGradient id="bg" x1="0" y1="0" x2="1" y2="1">
      <stop offset="0" stop-color="#0a3a57"/>
      <stop offset="0.55" stop-color="#06324c"/>
      <stop offset="1" stop-color="#02121f"/>
    </linearGradient>
    <radialGradient id="glow" cx="0.5" cy="0.42" r="0.6">
      <stop offset="0" stop-color="#4da9d9" stop-opacity="0.35"/>
      <stop offset="1" stop-color="#4da9d9" stop-opacity="0"/>
    </radialGradient>
    <pattern id="dots" width="28" height="28" patternUnits="userSpaceOnUse">
      <circle cx="1.5" cy="1.5" r="1.5" fill="#8fb4cc" opacity="0.16"/>
    </pattern>
    <path id="rosette" d="M0 -150 C10 -50 30 -10 140 0 C30 10 10 50 0 150 C-10 50 -30 10 -140 0 C-30 -10 -10 -50 0 -150 Z"/>
  </defs>

  <rect width="1200" height="900" fill="url(#bg)"/>
  <rect width="1200" height="900" fill="url(#dots)"/>
  <rect width="1200" height="900" fill="url(#glow)"/>

  <g transform="translate(975 175) scale(2.4)" fill="none" stroke="#4da9d9" stroke-opacity="0.22" stroke-width="14">
    <use href="#rosette"/>
    <use href="#rosette" transform="rotate(45)"/>
  </g>

  <g stroke="#4da9d9" stroke-opacity="0.5" stroke-width="3" fill="none">
    <path d="M40 84 V40 H84"/>
    <path d="M1160 84 V40 H1116"/>
    <path d="M40 816 V860 H84"/>
    <path d="M1160 816 V860 H1116"/>
  </g>

  <g font-family="'JetBrains Mono', monospace">
    <text x="60" y="836" fill="#8fb4cc" font-size="20" letter-spacing="6">TEMACONCEPT</text>
    <text x="60" y="866" fill="#e8f4fa" font-size="16" letter-spacing="6" opacity="0.85">SYS — L'ÉQUIPE</text>
  </g>

  <g>
    <rect x="500" y="300" width="280" height="190" rx="10" fill="#0a3a57" fill-opacity="0.6" stroke="#e8f4fa" stroke-opacity="0.9" stroke-width="4"/>
    <line x1="500" y1="520" x2="520" y2="560" stroke="#e8f4fa" stroke-opacity="0.5" stroke-width="6" stroke-linecap="round"/>
    <line x1="760" y1="520" x2="740" y2="560" stroke="#e8f4fa" stroke-opacity="0.5" stroke-width="6" stroke-linecap="round"/>
    <rect x="515" y="545" width="40" height="8" rx="4" fill="#e8f4fa" opacity="0.35"/>
    <rect x="725" y="545" width="40" height="8" rx="4" fill="#e8f4fa" opacity="0.35"/>
    <g transform="translate(640 395) scale(1.15)">
      <path d="M0 -90 C6 -30 18 -6 84 0 C18 6 6 30 0 90 C-6 30 -18 6 -84 0 C-18 -6 -6 -30 0 -90 Z" fill="none" stroke="#4da9d9" stroke-opacity="0.85" stroke-width="10"/>
      <path d="M0 -90 C6 -30 18 -6 84 0 C18 6 6 30 0 90 C-6 30 -18 6 -84 0 C-18 -6 -6 -30 0 -90 Z" fill="none" stroke="#4da9d9" stroke-opacity="0.85" stroke-width="10" transform="rotate(45)"/>
    </g>
  </g>

  <g>
    <g>
      <path d="M300 470 a70 60 0 0 1 140 0 Z" fill="#0a3a57" fill-opacity="0.6" stroke="#e8f4fa" stroke-opacity="0.8" stroke-width="3"/>
      <circle cx="370" cy="392" r="40" fill="#0a3a57" fill-opacity="0.6" stroke="#e8f4fa" stroke-opacity="0.85" stroke-width="3"/>
      <path d="M346 396 q12 10 24 0 M376 396 q12 10 24 0" stroke="#4da9d9" stroke-width="3" fill="none" stroke-linecap="round"/>
    </g>
    <g>
      <path d="M840 470 a70 60 0 0 1 140 0 Z" fill="#0a3a57" fill-opacity="0.6" stroke="#e8f4fa" stroke-opacity="0.8" stroke-width="3"/>
      <circle cx="910" cy="392" r="40" fill="#0a3a57" fill-opacity="0.6" stroke="#e8f4fa" stroke-opacity="0.85" stroke-width="3"/>
      <path d="M886 396 q12 10 24 0 M916 396 q12 10 24 0" stroke="#4da9d9" stroke-width="3" fill="none" stroke-linecap="round"/>
    </g>
  </g>

  <g font-family="'JetBrains Mono', monospace">
    <path d="M340 260 q-6 -18 8 -20 q16 -2 8 14 q-6 10 4 12 l-16 10 Z" fill="#4da9d9" opacity="0.9"/>
    <rect x="286" y="168" width="168" height="56" rx="10" fill="#06324c" stroke="#4da9d9" stroke-opacity="0.7" stroke-width="3"/>
    <text x="300" y="192" fill="#4da9d9" font-size="14" letter-spacing="2">LE MÊME SOUCI</text>
    <text x="300" y="212" fill="#e8f4fa" font-size="12" letter-spacing="1" opacity="0.9">POUR CLIENTS ET POUR NOUS</text>
  </g>
</svg>
